<?xml version="1.0" encoding="UTF-8"?> <!-- Generator: Adobe Illustrator 23.0.3, SVG Export Plug-In . SVG Version: 6.00 Build 0) --> <svg xmlns:cc="http://creativecommons.org/ns#" xmlns:dc="http://purl.org/dc/elements/1.1/" xmlns:inkscape="http://www.inkscape.org/namespaces/inkscape" xmlns:rdf="http://www.w3.org/1999/02/22-rdf-syntax-ns#" xmlns:sodipodi="http://sodipodi.sourceforge.net/DTD/sodipodi-0.dtd" xmlns:svg="http://www.w3.org/2000/svg" xmlns="http://www.w3.org/2000/svg" xmlns:xlink="http://www.w3.org/1999/xlink" version="1.1" id="logosvg.com" inkscape:version="1.0.2 (e86c870879, 2021-01-15)" sodipodi:docname="Aeroflot logo (en).svg" x="0px" y="0px" viewBox="0 0 400 300" style="enable-background:new 0 0 400 300;" xml:space="preserve"> <style type="text/css"> .st0{fill:url(#red_3_);} .st1{fill:url(#white_2_);} .st2{fill:url(#blue_3_);} .st3{fill:url(#red_4_);} .st4{fill:url(#blue_4_);} .st5{fill:url(#white_3_);} .st6{fill:url(#red_5_);} .st7{fill:#EE7203;} .st8{fill:#004A93;} </style> <g id="flag" transform="matrix(1.3333333,0,0,-1.3333333,0,1020.472)" inkscape:groupmode="layer" inkscape:label="aeroflot_ar16_eng"> <path id="blue_2_" d="M285.2,691.4c-4.7-4.7-9.8-5.4-14.5-5.9l-2.2-0.2c-2.4-0.2-4.7-0.5-6.9-2c-2.4-1.5-5.1-4.7-7.1-7.1 c-7.3-1.2-13.5-3.7-18.9-6.6c-9.3-5.1-15.7-12.2-20.3-17.1l-4.7-5.4l1,0.2c8.6,8.1,16.4,13.7,24.3,17.1c4.7,2.2,9.3,3.7,14,4.2h0.2 l4.9,6.4c1.2,1.2,3.2,1.7,5.9,2l4.9,0.2l4.2,0.2h1.5c3.2,0.5,5.9,1.2,9.8,6.4l5.1,7.1L285.2,691.4z M250.9,671.1c0,0-1.5-2-1.7-2.2 c-4.4-0.5-8.8-2-13.5-3.9c-5.9-2.7-11.8-6.6-18.1-11.8c4.4,4.7,10,10.5,18.1,15.2c4.9,2.9,11,5.1,18.1,6.6 C253.4,674.5,250.9,671.1,250.9,671.1 M280.1,684.1c-3.7-4.9-6.1-5.6-9.3-6.1h-1.2l-4.2-0.2l-4.9-0.2c-2-0.2-3.4-0.5-4.7-1.2 c1.7,2,4.2,4.9,6.4,6.4c2.2,1.5,4.9,1.5,6.6,1.7h1h0.2h1.5c3.9,0.5,8.3,1.2,12.5,4.4C282.1,686.8,280.1,684.1,280.1,684.1"></path> <linearGradient id="red_3_" gradientUnits="userSpaceOnUse" x1="121.1115" y1="770.4279" x2="123.5614" y2="770.4279" gradientTransform="matrix(13.3953 -13.2096 -13.2096 -13.3953 8773.1338 12584.8301)"> <stop offset="0" style="stop-color:#C00D0D"></stop> <stop offset="0.3" style="stop-color:#E30613"></stop> <stop offset="0.5292" style="stop-color:#F6B2B6"></stop> <stop offset="0.7475" style="stop-color:#E30613"></stop> <stop offset="1" style="stop-color:#C00D0D"></stop> </linearGradient> <path id="red_2_" class="st0" d="M211.3,647.4l-2.9-3.2c15.2,11.3,24,12.2,36.7,12l0,0c1.2,0,2.2,0,2.9,1.2l0,0l3.7,5.1 C234.1,662.6,226.3,658.2,211.3,647.4"></path> <linearGradient id="white_2_" gradientUnits="userSpaceOnUse" x1="116.4619" y1="771.5331" x2="118.9117" y2="771.5331" gradientTransform="matrix(32.9301 -23.9251 -23.9251 -32.9301 14834.834 28871.3672)"> <stop offset="0" style="stop-color:#FFFFFF"></stop> <stop offset="0.34" style="stop-color:#FFFFFF"></stop> <stop offset="0.54" style="stop-color:#FFFFFF"></stop> <stop offset="0.91" style="stop-color:#D3DAF0"></stop> <stop offset="1" style="stop-color:#D3DAF0"></stop> </linearGradient> <path id="white_1_" class="st1" d="M212.1,648.1L212.1,648.1L212.1,648.1c14.5,13.2,26.9,19.1,37.5,20.6l0,0c1,1.2,4.4,5.6,5.4,7.1 l0,0C230.7,671.6,219.6,655.7,212.1,648.1"></path> <linearGradient id="blue_3_" gradientUnits="userSpaceOnUse" x1="119.3962" y1="770.5745" x2="121.8461" y2="770.5745" gradientTransform="matrix(16.6904 -16.4591 -16.4591 -16.6904 10908.9307 15494.7871)"> <stop offset="0" style="stop-color:#004A93"></stop> <stop offset="0.1296" style="stop-color:#004A93"></stop> <stop offset="0.4622" style="stop-color:#899DD0"></stop> <stop offset="0.6371" style="stop-color:#004A93"></stop> <stop offset="0.9166" style="stop-color:#004A93"></stop> <stop offset="1" style="stop-color:#004A93"></stop> </linearGradient> <path id="blue_1_" class="st2" d="M212.1,648.1c-0.2-0.2-0.7-0.7-1.2-1.2l0,0c-0.2-0.2-0.5-0.5-0.5-0.5l0,0 c2.7,2.2,8.6,6.6,13.7,9.3l0,0c5.1,2.9,11.5,5.1,20.6,6.4l0,0c1,1,3.7,4.7,4.9,6.4l0,0C232.9,666.2,222.1,656.9,212.1,648.1"></path> <linearGradient id="red_4_" gradientUnits="userSpaceOnUse" x1="133.0212" y1="771.1355" x2="135.471" y2="771.1355" gradientTransform="matrix(7.1683 -4.6552 -4.6552 -7.1683 2879.5925 6811.0835)"> <stop offset="0" style="stop-color:#C00D0D"></stop> <stop offset="0.5" style="stop-color:#E30613"></stop> <stop offset="1" style="stop-color:#F6B2B6"></stop> </linearGradient> <path id="red_1_" class="st3" d="M243.9,661.1c-0.5-1.2,0.2-0.7,2.4-2l0,0c1.7-1,1.5-1.5,1.2-2.2l0,0c1.7,2.4,4.7,5.9,4.7,5.9l0,0 c-0.7,0.2-1.7,0.5-2.4,0.5l0,0C246.8,663.3,244.1,661.8,243.9,661.1"></path> <linearGradient id="blue_4_" gradientUnits="userSpaceOnUse" x1="119.1742" y1="770.2925" x2="121.624" y2="770.2925" gradientTransform="matrix(19.8701 -16.4965 -16.4965 -19.8701 10590.7881 17958.6582)"> <stop offset="0" style="stop-color:#D3DDF2"></stop> <stop offset="7.302860e-02" style="stop-color:#D3DDF2"></stop> <stop offset="0.3708" style="stop-color:#004A93"></stop> <stop offset="0.9494" style="stop-color:#D3DDF2"></stop> <stop offset="1" style="stop-color:#D3DDF2"></stop> </linearGradient> <path id="blue" class="st4" d="M260.6,677.3c-3.4-0.2-5.6-1.2-7.1-2.9l0,0l-4.7-6.4c1.2,1,4.2,1.5,7.6,1.5l0,0h0.5h0.5 c0.5,0,1,0,1.5,0l0,0c4.9,0,11.5,0.7,15.4,5.4l0,0l5.9,8.1l0.7,1C275.7,677.3,264.2,677.8,260.6,677.3"></path> <linearGradient id="white_3_" gradientUnits="userSpaceOnUse" x1="119.5796" y1="770.0302" x2="122.0295" y2="770.0302" gradientTransform="matrix(18.7207 -15.5423 -15.5423 -18.7207 9986.458 16966.8613)"> <stop offset="0" style="stop-color:#FFFFFF"></stop> <stop offset="0.1742" style="stop-color:#FFFFFF"></stop> <stop offset="0.3539" style="stop-color:#E3E7F6"></stop> <stop offset="0.7" style="stop-color:#FFFFFF"></stop> <stop offset="1" style="stop-color:#FFFFFF"></stop> </linearGradient> <path id="white" class="st5" d="M284.8,690.2c-5.1-4.4-10.5-4.7-15.2-5.4l0,0c-1.5-0.2-4.9,0-7.6-2l0,0c-2.9-1.7-6.4-6.1-8.1-8.3 l0,0c1.5,1.7,3.7,2.2,6.9,2.7l0,0c2.9,0.2,7.3,0.2,10.3,0.7l0,0c2.9,0.2,5.6,1,9.6,6.1l0,0l4.7,6.1H284.8z"></path> <linearGradient id="red_5_" gradientUnits="userSpaceOnUse" x1="120.4067" y1="770.3003" x2="122.8565" y2="770.3003" gradientTransform="matrix(16.8244 -13.968 -13.968 -16.8244 8981.1699 15319.8027)"> <stop offset="0" style="stop-color:#F6B2B6"></stop> <stop offset="5.618290e-02" style="stop-color:#F6B2B6"></stop> <stop offset="0.2761" style="stop-color:#E30613"></stop> <stop offset="0.5169" style="stop-color:#C00D0D"></stop> <stop offset="0.6919" style="stop-color:#E30613"></stop> <stop offset="0.8914" style="stop-color:#F5A9A8"></stop> <stop offset="1" style="stop-color:#F6B2B6"></stop> </linearGradient> <path id="red" class="st6" d="M263.5,670.2c-3.7-0.5-7.8-0.5-9.1-0.7l0,0c-2,0-4.7-0.7-5.4-1.7l0,0c-2.4-2.9-4.4-5.4-5.1-6.6l0,0 c1.5,1.2,6.1,1.2,11.8,1.5l0,0c5.6,0.2,11.3,2.7,15.7,7.8l0,0l3.4,4.9C272.3,672.1,268.4,670.9,263.5,670.2"></path> </g> <path id="orange" class="st7" d="M140.7,193.7c5.2,1,15.4,2.3,27.8,2.3c12.4,0.3,26.8-0.3,40.8-2.6c13.7-2,26.8-5.2,35.9-8.8 c9.1-3.6,14.4-7.8,14.4-7.8s-5.2,4.9-15,9.1c-9.8,4.2-23.2,8.5-37.6,11.1c-14.4,2.9-29.4,3.9-41.8,4.2c-12.4,0-21.9-1-25.2-1.6 c-11.4-1.6-19.9-4.9-25.2-7.5c-5.2-2.9-6.9-5.6-6.2-6.2c0.7-0.7,3.3,0.7,8.5,2.3C122.1,190.1,130,192.4,140.7,193.7"></path> <path id="text" class="st8" d="M53.2,164.6h22.9l-4.2,2.6l-17.3-1c-0.3,1.3-1,2.3-1.6,3.3c-1.3,1.6-3.3,2.3-5.2,2.3 c-2,0-3.9-0.7-5.2-2.3c-0.7-1-1.3-2-1.6-3.3l-17.6,1l-4.2-2.6h22.9c0,1,0.3,2,0.7,2.6c1,2,2.9,3.3,5.2,3.3s4.2-1,5.2-3.3 C53.2,166.2,53.2,165.6,53.2,164.6z M54.2,167.5l13.1,1.6l3.3-1.6l-16-1C54.5,166.9,54.2,167.2,54.2,167.5z M53.5,168.9l9.5,1.6 l2.9-1.3l-11.8-1.3C54.2,168.2,53.9,168.5,53.5,168.9z M40.2,167.9l-11.8,1.3l2.9,1.3l9.5-1.6C40.5,168.5,40.5,168.2,40.2,167.9z M39.8,166.6l-16,1l3.3,1.6l13.1-1.6C40.2,167.2,39.8,166.9,39.8,166.6z M53.2,164h1.3c-0.3-1.6-1-2.9-2-3.9 c-1.3-1.6-3.3-2.6-4.9-3.6c-0.3,0-0.7-0.3-1-0.3c0.3,0.3,0.7,0.3,1,0.7c2.3,1.3,4.2,3.3,5.2,5.9C52.9,163,53.2,163.6,53.2,164z M52.6,170.2c0,0,0,0.3-0.3,0.3h0.3l4.9,1.6l3.6-1.3l-7.8-1.3C52.9,169.8,52.9,169.8,52.6,170.2z M48.3,161.7l-1,0.3l-3.6,1.6l1,2.3 l1.6-0.7l2.3,4.6c0.3-0.3,1-0.3,1.6-0.7l-2.3-4.6l2.3-1.3L48.3,161.7z M42.1,170.2c-0.3-0.3-0.7-0.3-0.7-0.7l-8.2,1.6l3.3,1l5.9-1.6 L42.1,170.2z M52.9,171.1h-0.3l-1-0.3c-1.3,1-2.9,1.3-4.2,1.3c-1.6,0-2.9-0.3-4.6-1.3l-1,1c0.3,0.3,0.7,0.3,1,0.7l-1,1.6l-0.3,0.7 c0,0.3,0.3,0.3,0.3,0.7c0.3,0.3,1,0.3,1.3,0.3l1.3-2.6c1,0.3,2,0.3,2.9,0.3c1,0,2-0.3,2.6-0.7l1.3,2.6l1.3-0.7l0.3-0.3l-0.3-0.3 l-1-2c0.3-0.3,0.7-0.7,1-0.7L52.9,171.1z M68.1,134.3h13.4v-3.6H68.1v-6.5h14v-3.6H58.3v24.8h24.5v0v-3.9H68.1V134.3z M108,125.4 c1,0.7,1.6,2,1.6,3.3c0,1-0.3,2.3-2,3.3c-2,1.3-5.2,1.3-7.5,1.3h-1.3l9.8,12.4h11.4l-9.5-10.5c1.6-0.3,4.2-1,5.9-2 c2-1.3,2.9-3.3,2.9-5.2s-1-4.2-3.6-5.6c-2.9-1.6-6.9-1.6-10.8-1.6H86.8v24.8h10.5v-0.3v-20.9h5.9C104.7,124.5,106.4,124.5,108,125.4 z M177,124.5h14.4v-3.6h-24.2v24.8h9.8v-0.3v-10.5h13.4v-3.6H177V124.5z M219.7,141.6H205v-20.9h-9.8v24.8h24.5V141.6z M260.3,120.8 v3.6h10.8v20.9h9.8v-20.9h10.8v-3.6H260.3z M254.6,141.8c-4.2,3.3-10.8,4.2-15.4,4.2s-11.1-1.3-15.4-4.2c-3.6-2.3-5.2-5.9-5.2-8.8 c0-2.9,1.6-6.2,5.2-8.8c4.2-3.3,10.8-4.2,15.4-4.2c4.6,0.3,11.1,1.3,15.4,4.2c3.3,2.3,4.9,5.9,4.9,8.8 C259.5,135.9,258.2,139.5,254.6,141.8z M248.8,133c0-2.3-0.3-4.6-2-6.9c-2.3-2.6-4.9-3.3-7.5-3.3c-2.6,0-5.2,0.7-7.5,3.3 c-1.6,2.3-2,4.6-2,6.9c0,2.3,0.3,4.6,2,6.9c2.3,2.6,4.9,3.3,7.5,3.3c2.6,0,5.6-0.3,7.5-3.3C248.4,137.6,248.8,135.3,248.8,133z M122.6,133c0-2.9,1.6-6.2,5.2-8.8c4.2-3.3,10.8-4.2,15.4-4.2c4.6,0.3,11.1,1.3,15.4,4.2c3.3,2.3,4.9,5.9,4.9,8.8 c0,2.9-1.3,6.5-4.9,8.8c-4.2,3.3-10.8,4.2-15.4,4.2c-4.6,0-11.1-1.3-15.4-4.2C124.2,139.5,122.6,135.9,122.6,133z M133.7,133 c0,2.3,0.3,4.6,2,6.9c2.3,2.6,4.9,3.3,7.5,3.3s5.6-0.3,7.5-3.3c1.6-2.3,2-4.6,2-6.9c0-2.3-0.3-4.6-2-6.9c-2.3-2.6-4.9-3.3-7.5-3.3 s-5.2,0.7-7.5,3.3C134,128.4,133.7,130.7,133.7,133z M23.2,145.4h-4.9L32,120.5h9.1l15,24.8H45.1l-4.2-7.2H27.1L23.2,145.4z M29.1,134.9h9.8l-5.2-8.5L29.1,134.9z M120,173.3c-0.3,0.3-0.7,0.7-1,0.7c-0.7,0.3-1.3,0.7-1.6,0.7c-0.7,0-1-0.3-1.3-0.7 c0-0.3-0.3-0.7,0-1.3l2-7.5h-2l-2,7.2c0,0.7-0.3,1.6,0,2.6c0.3,0.3,1,1,2.6,1c0.7,0,1.3,0,2-0.3c0.3-0.3,1-0.7,1.3-1l-0.3,1h2 l2.9-10.5h-2.3L120,173.3z M131.8,166.7c0.3,0,1,0,1.3,0.3c0.3,0.3,0.7,0.3,0.7,0.7l1.6-1.3c-0.3-0.7-1-1-1.3-1 c-0.7-0.3-1.3-0.3-2-0.3c-0.7,0-1.6,0-2.6,0.7c-0.7,0.7-1.6,1.3-2,2.6c-0.3,1-0.3,1.6,0,2c0.3,0.7,1,0.7,1.6,1l1,0.3 c0.7,0,1,0,1.3,0.7c0,0.3,0.3,0.7,0.3,1s-0.3,0.7-0.7,1c-0.3,0.3-1,0.7-2,0.7c-0.7,0-1,0-1.6-0.3c-0.3-0.3-0.7-0.7-1-1l-1.3,1.3 c1,1.3,2.3,1.3,3.3,1.3c0.7,0,2.3,0,3.9-1c0.7-0.7,1.3-1.3,1.6-2.3c0-0.7,0.3-1.3,0-2c-0.3-0.7-1.3-1-1.6-1.3h-0.7 c-1-0.3-1.3-0.3-1.6-0.7c-0.3,0-0.3-0.3-0.3-1c0-0.3,0.3-0.7,0.7-1C131.1,166.7,131.5,166.7,131.8,166.7z M142.8,166.7 c0.7,0,1,0,1.3,0.3c0.3,0.3,0.7,0.3,0.7,0.7l1.6-1.3c-0.3-0.7-1-1-1.3-1c-0.7-0.3-1.3-0.3-2-0.3c-0.7,0-1.6,0-2.6,0.7 c-0.7,0.7-1.6,1.3-2,2.6c-0.3,1,0,1.6,0.3,2c0.3,0.7,1,0.7,1.6,1l1,0.3c0.7,0,1,0,1.3,0.7c0.3,0.3,0.3,0.7,0.3,1 c-0.3,0.3-0.3,0.7-0.7,1s-1,0.7-2,0.7c-0.7,0-1,0-1.6-0.3c-0.3-0.3-0.7-0.7-1-1l-1.3,1.3c1,1.3,2.3,1.3,3.3,1.3s2.3,0,3.9-1 c0.7-0.7,1.3-1.3,1.3-2.3c0-0.7,0.3-1.3,0-2s-1.3-1-1.6-1.3h-0.7c-1-0.3-1.3-0.3-1.6-0.7c-0.3,0-0.3-0.3-0.3-1c0-0.3,0.3-0.7,0.7-1 C141.8,166.7,142.5,166.7,142.8,166.7z M153.3,160.6c-0.7,0-1.3,0.7-1.6,1.3c-0.3,0.7,0.3,1.3,1,1.3c0.7,0,1.3-0.7,1.6-1.3 C154.6,161.3,154,160.6,153.3,160.6z M150.4,165.2l-0.3,1.6h1.3l-2.6,9.1h2l2.9-10.5h-3.3V165.2z M176.2,165c-0.7,0-2,0-3.3,1 l0.3-0.7H170l-0.3,1.3h1.3l-2.6,9.1h2l2.3-8.5c0.7-0.7,1.6-1,2.6-1c0.7,0,1,0.3,1.3,0.7c0.3,0.7,0.3,1.3,0,1.6l-2,7.2h2l2-7.2 c0.3-1,0.3-2,0-2.6C178.2,165.3,177.2,165,176.2,165z M112.2,161.8c0.7,0.7,0.7,2,0.3,2.9c-0.3,1-1,2.3-2,2.9 c-1,0.7-2.6,1.3-3.6,1.3l2.6,6.9H107h-0.3l-2.3-6.9h-1.6l-1.6,6.9h-2.3l4.2-15.4h3.9h1.3C109.6,160.5,111.2,160.8,112.2,161.8z M109.9,163.1c-0.7-0.7-1.6-0.7-2-0.7h-1h-2l-1.3,4.9h2.9h0.3c0.7,0,1.3,0,2-0.7c0.7-0.7,1-1.3,1.3-2 C110.6,164.1,110.3,163.4,109.9,163.1z M165.6,166c0.7,0.7,0.3,2,0,2.9l-2,6.9h-2l0.3-1.3c0,0-0.7,0.7-1.3,1c-0.3,0-0.3,0-0.3,0 c-0.7,0.3-1.3,0.3-2,0.3c-1.6,0-2.6-0.7-2.6-2v-0.3c0-0.3,0-0.3,0-0.7c0.7-2.3,2.3-2.9,4.6-3.3c0.3,0,1,0,1.3,0h1.6l0.7-1.6 c0.3-0.3,0.3-1,0-1.3c-0.3-0.3-1-0.3-1.3-0.3c-1,0-1.6,0-2,0.3c-0.3,0.3-0.7,0.7-0.7,1.3h-2c0-1,0.7-2.3,2.6-2.6 c0.7-0.3,1.3-0.3,2.3-0.3C164,165,165.3,165.3,165.6,166z M163,170.9h-1.6c-0.3,0-0.7,0-1,0c-1,0-1.3,0.3-1.6,0.7 c-0.7,0.3-1,1-1,1.3c0,0.7,0,1,0.3,1.3c0.3,0.7,1,0.7,1.3,0.7c0.3,0,0.7-0.3,1-0.3c0.3,0,0.7,0,1-0.3s0.7-0.7,1-1L163,170.9z M209.5,165.2l-0.3,1.6h1.3l-2.6,9.1h2l2.9-10.5h-3.3V165.2z M213.1,160.6c-0.7,0-1.3,0.7-1.6,1.3c-0.3,0.7,0.3,1.3,1,1.3 c0.7,0,1.3-0.7,1.6-1.3C214.4,161.3,213.7,160.6,213.1,160.6z M223.2,164.8c-0.3,0-0.7-0.3-1-0.3c-1.3,0-2.3,0.7-3.3,1.6l0.3-1.6h-2 v0.7l-2.9,10.5h2l1.6-6.2c0.3-0.7,0.7-1.3,1-2c0.7-1,1.3-1.3,2-1.3c0.3,0,0.7,0,0.7,0.3c0,0.3,0.3,0.3,0.3,1l2-0.7 C224.1,165.8,223.8,165.2,223.2,164.8z M230.9,160.6h-2.3v-0.3l-3.3,12.7c-0.3,1-0.7,2.9,1.6,2.9h1.3l0.3-1.3h-0.7c-1,0-0.7-1-0.7-1 L230.9,160.6z M234.1,165.2l-0.3,1.6h1.3l-2.6,9.1h2l2.9-10.5h-3.3V165.2z M237.7,160.6c-0.7,0-1.3,0.7-1.6,1.3 c-0.3,0.7,0.3,1.3,1,1.3c0.7,0,1.3-0.7,1.6-1.3C239,161.3,238.4,160.6,237.7,160.6z M247.8,165c-0.7,0-2,0-3.3,1l0.3-0.7h-3.3 l-0.3,1.3h1.3l-2.6,9.1h1.6l2.3-8.5c0.7-0.7,2-1,2.9-1c0.7,0,1,0.3,1.3,0.7c0.3,0.7,0,1.3,0,1.6l-2,7.2h2l2-7.2c0.3-1,0.3-2,0-2.6 C249.8,165.3,248.8,165,247.8,165z M269.6,166.7c0.7,0,1,0,1.3,0.3c0.3,0.3,0.7,0.3,0.7,0.7l1.6-1.3c-0.3-0.7-1-1-1-1 c-0.7-0.3-1.3-0.3-2-0.3c-0.7,0-1.6,0-2.6,0.7c-0.7,0.7-1.6,1.3-2,2.6c-0.3,1,0,1.6,0.3,2c0.3,0.7,1,0.7,1.6,1l1,0.3 c0.7,0,1,0,1.3,0.7c0.3,0.3,0.3,0.7,0.3,1s-0.3,0.7-0.7,1s-1,0.7-2,0.7c-0.7,0-1,0-1.6-0.3c-0.3-0.3-0.7-0.7-1-1l-1.3,1.3 c1,1.3,2.3,1.3,3.3,1.3c1,0,2.3,0,3.9-1c0.7-0.7,1.3-1.3,1.6-2.3c0.3-0.7,0.3-1.3,0-2c-0.3-0.7-1.3-1-1.6-1.3h-1.3 c-1-0.3-1.3-0.3-1.6-0.7c-0.3,0-0.3-0.3-0.3-1c0-0.3,0.3-0.7,0.7-1C269,166.7,269.3,166.7,269.6,166.7z M203.4,160.4l1.3,15.4h-2.6 l-0.3-3.6h-5.9l-2.3,3.6h-2.3l10.1-15.4H203.4z M202.1,170.5l-0.7-6.5l-4.2,6.5H202.1z M262.1,166.4c1,1,0.3,2.6,0,3.9l-0.3,0.7 h-6.5v1c-0.3,0.7-0.7,1.6,0,2.3c0.3,0.3,1.3,0.7,2,0.7c0.7,0,1-0.3,1.6-0.3c0.3-0.3,0.7-0.3,1.3-0.7l0.3,1.3c-0.3,0.3-1,0.7-1.3,0.7 c-0.7,0.3-1.3,0.3-2.3,0.3c-1,0-2.6-0.3-3.3-1.3c-1-1.3-0.7-3.3-0.3-4.2c0.3-1.3,1-2.9,2.3-4.2c1-1,2.3-1.3,3.6-1.3 C260.1,165,261.4,165.4,262.1,166.4z M259.8,167c-0.3-0.3-0.7-0.3-1.3-0.3c-0.3,0-1.3,0.3-1.6,0.7c-1,0.7-1,1.3-1.3,2v0.3h4.2v-0.3 C260.1,168.6,260.1,167.7,259.8,167z"></path> </svg> 